<svg xmlns="http://www.w3.org/2000/svg" xmlns:xlink="http://www.w3.org/1999/xlink" width="1080" zoomAndPan="magnify" viewBox="0 0 810 809.999993" height="1080" preserveAspectRatio="xMidYMid meet" version="1.0"><defs><g/><clipPath id="a7dc038bf1"><path d="M 12.050781 9.375 L 797.949219 9.375 L 797.949219 801 L 12.050781 801 Z M 12.050781 9.375 " clip-rule="nonzero"/></clipPath><clipPath id="a973612497"><path d="M 98.300781 9.375 L 711.699219 9.375 C 759.335938 9.375 797.949219 47.988281 797.949219 95.625 L 797.949219 714.375 C 797.949219 762.011719 759.335938 800.625 711.699219 800.625 L 98.300781 800.625 C 50.664062 800.625 12.050781 762.011719 12.050781 714.375 L 12.050781 95.625 C 12.050781 47.988281 50.664062 9.375 98.300781 9.375 Z M 98.300781 9.375 " clip-rule="nonzero"/></clipPath></defs><g clip-path="url(#a7dc038bf1)"><g clip-path="url(#a973612497)"><path fill="#211d1e" d="M 12.050781 9.375 L 797.949219 9.375 L 797.949219 801.414062 L 12.050781 801.414062 Z M 12.050781 9.375 " fill-opacity="1" fill-rule="nonzero"/></g></g><g fill="#eb4c37" fill-opacity="1"><g transform="translate(309.624967, 697.982253)"><g><path d="M 217.640625 -258.734375 L 217.640625 -91.890625 C 217.640625 -60.109375 209.066406 -36.0625 191.921875 -19.75 C 174.785156 -3.445312 149.695312 4.703125 116.65625 4.703125 C 83.625 4.703125 58.535156 -3.445312 41.390625 -19.75 C 24.253906 -36.0625 15.6875 -60.109375 15.6875 -91.890625 L 15.6875 -258.734375 L 74.640625 -258.734375 L 74.640625 -109.140625 C 74.640625 -88.234375 77.929688 -73.703125 84.515625 -65.546875 C 91.097656 -57.390625 101.8125 -53.3125 116.65625 -53.3125 C 131.5 -53.3125 142.210938 -57.390625 148.796875 -65.546875 C 155.390625 -73.703125 158.6875 -88.234375 158.6875 -109.140625 L 158.6875 -258.734375 Z M 217.640625 -258.734375 "/></g></g></g><g fill="#eb4c37" fill-opacity="1"><g transform="translate(542.963065, 151.093138)"><g><path d="M -217.640625 258.734375 L -217.640625 91.890625 C -217.640625 60.109375 -209.066406 36.0625 -191.921875 19.75 C -174.785156 3.445312 -149.695312 -4.703125 -116.65625 -4.703125 C -83.625 -4.703125 -58.535156 3.445312 -41.390625 19.75 C -24.253906 36.0625 -15.6875 60.109375 -15.6875 91.890625 L -15.6875 258.734375 L -74.640625 258.734375 L -74.640625 109.140625 C -74.640625 88.234375 -77.929688 73.703125 -84.515625 65.546875 C -91.097656 57.390625 -101.8125 53.3125 -116.65625 53.3125 C -131.5 53.3125 -142.210938 57.390625 -148.796875 65.546875 C -155.390625 73.703125 -158.6875 88.234375 -158.6875 109.140625 L -158.6875 258.734375 Z M -217.640625 258.734375 "/></g></g></g></svg>