<svg xmlns="http://www.w3.org/2000/svg" xmlns:xlink="http://www.w3.org/1999/xlink" zoomAndPan="magnify" preserveAspectRatio="xMidYMid meet" version="1.0" viewBox="200.48 278.67 417.73 236.52"><defs><g/></defs><g fill="#eb4c37" fill-opacity="1"><g transform="translate(324.010102, 513.31343)"><g><path d="M 86.203125 -102.484375 L 86.203125 -36.390625 C 86.203125 -23.804688 82.804688 -14.285156 76.015625 -7.828125 C 69.222656 -1.367188 59.285156 1.859375 46.203125 1.859375 C 33.117188 1.859375 23.179688 -1.367188 16.390625 -7.828125 C 9.597656 -14.285156 6.203125 -23.804688 6.203125 -36.390625 L 6.203125 -102.484375 L 29.5625 -102.484375 L 29.5625 -43.234375 C 29.5625 -34.953125 30.863281 -29.191406 33.46875 -25.953125 C 36.082031 -22.722656 40.328125 -21.109375 46.203125 -21.109375 C 52.085938 -21.109375 56.332031 -22.722656 58.9375 -25.953125 C 61.550781 -29.191406 62.859375 -34.953125 62.859375 -43.234375 L 62.859375 -102.484375 Z M 86.203125 -102.484375 "/></g></g></g><g fill="#eb4c37" fill-opacity="1"><g transform="translate(416.437222, 296.686241)"><g><path d="M -86.203125 102.484375 L -86.203125 36.390625 C -86.203125 23.804688 -82.804688 14.285156 -76.015625 7.828125 C -69.222656 1.367188 -59.285156 -1.859375 -46.203125 -1.859375 C -33.117188 -1.859375 -23.179688 1.367188 -16.390625 7.828125 C -9.597656 14.285156 -6.203125 23.804688 -6.203125 36.390625 L -6.203125 102.484375 L -29.5625 102.484375 L -29.5625 43.234375 C -29.5625 34.953125 -30.863281 29.191406 -33.46875 25.953125 C -36.082031 22.722656 -40.328125 21.109375 -46.203125 21.109375 C -52.085938 21.109375 -56.332031 22.722656 -58.9375 25.953125 C -61.550781 29.191406 -62.859375 34.953125 -62.859375 43.234375 L -62.859375 102.484375 Z M -86.203125 102.484375 "/></g></g></g><g fill="#fff4f0" fill-opacity="1"><g transform="translate(191.797319, 403.516728)"><g><path d="M 36 -119.765625 L 36 -23.953125 L 77.234375 -23.953125 L 77.234375 0 L 8.703125 0 L 8.703125 -119.765625 Z M 36 -119.765625 "/></g></g></g><g fill="#fff4f0" fill-opacity="1"><g transform="translate(273.819432, 403.516728)"><g><path d="M 11.171875 -115.984375 C 14.171875 -118.992188 17.75 -120.5 21.90625 -120.5 C 26.070312 -120.5 29.65625 -118.992188 32.65625 -115.984375 C 35.65625 -112.984375 37.15625 -109.398438 37.15625 -105.234375 C 37.15625 -101.078125 35.65625 -97.5 32.65625 -94.5 C 29.65625 -91.5 26.070312 -90 21.90625 -90 C 17.75 -90 14.171875 -91.5 11.171875 -94.5 C 8.171875 -97.5 6.671875 -101.078125 6.671875 -105.234375 C 6.671875 -109.398438 8.171875 -112.984375 11.171875 -115.984375 Z M 8.703125 -74.46875 L 8.703125 0 L 34.40625 0 L 34.40625 -74.46875 Z M 8.703125 -74.46875 "/></g></g></g><g fill="#fff4f0" fill-opacity="1"><g transform="translate(423.227622, 403.516728)"><g><path d="M 93.78125 -74.46875 L 58.359375 -38.90625 L 97.265625 0 L 64.171875 0 L 34.40625 -29.765625 L 34.40625 0 L 8.703125 0 L 8.703125 -124.84375 L 34.40625 -124.84375 L 34.40625 -48.484375 L 60.390625 -74.46875 Z M 93.78125 -74.46875 "/></g></g></g><g fill="#fff4f0" fill-opacity="1"><g transform="translate(517.008654, 403.516728)"><g><path d="M 11.171875 -115.984375 C 14.171875 -118.992188 17.75 -120.5 21.90625 -120.5 C 26.070312 -120.5 29.65625 -118.992188 32.65625 -115.984375 C 35.65625 -112.984375 37.15625 -109.398438 37.15625 -105.234375 C 37.15625 -101.078125 35.65625 -97.5 32.65625 -94.5 C 29.65625 -91.5 26.070312 -90 21.90625 -90 C 17.75 -90 14.171875 -91.5 11.171875 -94.5 C 8.171875 -97.5 6.671875 -101.078125 6.671875 -105.234375 C 6.671875 -109.398438 8.171875 -112.984375 11.171875 -115.984375 Z M 8.703125 -74.46875 L 8.703125 0 L 34.40625 0 L 34.40625 -74.46875 Z M 8.703125 -74.46875 "/></g></g></g><g fill="#fff4f0" fill-opacity="1"><g transform="translate(560.850556, 403.516728)"><g><path d="M 13.0625 -74.46875 L 13.0625 -102.203125 L 38.765625 -102.203125 L 38.765625 -74.46875 L 54.4375 -74.46875 L 54.4375 -54.875 L 38.765625 -54.875 L 38.765625 -31.21875 C 38.765625 -24.34375 40.695312 -20.90625 44.5625 -20.90625 C 45.53125 -20.90625 46.546875 -21.097656 47.609375 -21.484375 C 48.679688 -21.867188 49.503906 -22.253906 50.078125 -22.640625 L 50.953125 -23.234375 L 57.34375 -2.46875 C 51.820312 0.625 45.53125 2.171875 38.46875 2.171875 C 33.632812 2.171875 29.472656 1.328125 25.984375 -0.359375 C 22.503906 -2.054688 19.867188 -4.332031 18.078125 -7.1875 C 16.285156 -10.039062 15 -13.039062 14.21875 -16.1875 C 13.445312 -19.332031 13.0625 -22.695312 13.0625 -26.28125 L 13.0625 -54.875 L 2.328125 -54.875 L 2.328125 -74.46875 Z M 13.0625 -74.46875 "/></g></g></g></svg>