<svg xmlns="http://www.w3.org/2000/svg" xmlns:xlink="http://www.w3.org/1999/xlink" width="1080" zoomAndPan="magnify" viewBox="0 0 810 809.999993" height="1080" preserveAspectRatio="xMidYMid meet" version="1.0"><defs><g/></defs><g fill="#211d1e" fill-opacity="1"><g transform="translate(333.275583, 576.389319)"><g><path d="M 133.796875 -159.0625 L 133.796875 -56.484375 C 133.796875 -36.953125 128.523438 -22.171875 117.984375 -12.140625 C 107.453125 -2.117188 92.03125 2.890625 71.71875 2.890625 C 51.414062 2.890625 35.992188 -2.117188 25.453125 -12.140625 C 14.910156 -22.171875 9.640625 -36.953125 9.640625 -56.484375 L 9.640625 -159.0625 L 45.890625 -159.0625 L 45.890625 -67.09375 C 45.890625 -54.238281 47.910156 -45.304688 51.953125 -40.296875 C 56.003906 -35.285156 62.59375 -32.78125 71.71875 -32.78125 C 80.84375 -32.78125 87.429688 -35.285156 91.484375 -40.296875 C 95.535156 -45.304688 97.5625 -54.238281 97.5625 -67.09375 L 97.5625 -159.0625 Z M 133.796875 -159.0625 "/></g></g></g><g fill="#211d1e" fill-opacity="1"><g transform="translate(476.7202, 240.18915)"><g><path d="M -133.796875 159.0625 L -133.796875 56.484375 C -133.796875 36.953125 -128.523438 22.171875 -117.984375 12.140625 C -107.453125 2.117188 -92.03125 -2.890625 -71.71875 -2.890625 C -51.414062 -2.890625 -35.992188 2.117188 -25.453125 12.140625 C -14.910156 22.171875 -9.640625 36.953125 -9.640625 56.484375 L -9.640625 159.0625 L -45.890625 159.0625 L -45.890625 67.09375 C -45.890625 54.238281 -47.910156 45.304688 -51.953125 40.296875 C -56.003906 35.285156 -62.59375 32.78125 -71.71875 32.78125 C -80.84375 32.78125 -87.429688 35.285156 -91.484375 40.296875 C -95.535156 45.304688 -97.5625 54.238281 -97.5625 67.09375 L -97.5625 159.0625 Z M -133.796875 159.0625 "/></g></g></g></svg>